<?xml version="1.0" encoding="UTF-8" standalone="no"?>
<svg
   xmlns:dc="http://purl.org/dc/elements/1.1/"
   xmlns:cc="http://creativecommons.org/ns#"
   xmlns:rdf="http://www.w3.org/1999/02/22-rdf-syntax-ns#"
   xmlns:svg="http://www.w3.org/2000/svg"
   xmlns="http://www.w3.org/2000/svg"
   id="svg8"
   version="1.1"
   viewBox="0 0 418.57861 187.82362"
   height="187.82362mm"
   width="418.57861mm">
  <defs
     id="defs2">
    <marker
       orient="auto"
       refY="0"
       refX="0"
       id="marker2729"
       style="overflow:visible">
      <path
         id="path2727"
         style="fill:#ff5555;fill-opacity:1;fill-rule:evenodd;stroke:#ff5555;stroke-width:0.625;stroke-linejoin:round;stroke-opacity:1"
         d="M 8.7185878,4.0337352 -2.2072895,0.01601326 8.7185884,-4.0017078 c -1.7454984,2.3720609 -1.7354408,5.6174519 -6e-7,8.035443 z"
         transform="scale(-0.6)" />
    </marker>
    <marker
       orient="auto"
       refY="0"
       refX="0"
       id="marker2719"
       style="overflow:visible">
      <path
         id="path2717"
         style="fill:#ff5555;fill-opacity:1;fill-rule:evenodd;stroke:#ff5555;stroke-width:0.625;stroke-linejoin:round;stroke-opacity:1"
         d="M 8.7185878,4.0337352 -2.2072895,0.01601326 8.7185884,-4.0017078 c -1.7454984,2.3720609 -1.7354408,5.6174519 -6e-7,8.035443 z"
         transform="scale(-0.6)" />
    </marker>
    <marker
       orient="auto"
       refY="0"
       refX="0"
       id="marker2565"
       style="overflow:visible">
      <path
         id="path2563"
         style="fill:#ff5555;fill-opacity:1;fill-rule:evenodd;stroke:#ff5555;stroke-width:0.625;stroke-linejoin:round;stroke-opacity:1"
         d="M 8.7185878,4.0337352 -2.2072895,0.01601326 8.7185884,-4.0017078 c -1.7454984,2.3720609 -1.7354408,5.6174519 -6e-7,8.035443 z"
         transform="scale(-0.6)" />
    </marker>
    <marker
       style="overflow:visible"
       id="marker2501"
       refX="0"
       refY="0"
       orient="auto">
      <path
         transform="matrix(-0.4,0,0,-0.4,-4,0)"
         style="fill:#000000;fill-opacity:1;fill-rule:evenodd;stroke:#000000;stroke-width:1.00000003pt;stroke-opacity:1"
         d="M 0,0 5,-5 -12.5,0 5,5 Z"
         id="path2499" />
    </marker>
    <marker
       style="overflow:visible"
       id="marker2443"
       refX="0"
       refY="0"
       orient="auto">
      <path
         transform="matrix(-0.4,0,0,-0.4,-4,0)"
         style="fill:#000000;fill-opacity:1;fill-rule:evenodd;stroke:#000000;stroke-width:1.00000003pt;stroke-opacity:1"
         d="M 0,0 5,-5 -12.5,0 5,5 Z"
         id="path2441" />
    </marker>
    <marker
       orient="auto"
       refY="0"
       refX="0"
       id="marker2391"
       style="overflow:visible">
      <path
         id="path2389"
         style="fill:#000000;fill-opacity:1;fill-rule:evenodd;stroke:#000000;stroke-width:0.625;stroke-linejoin:round;stroke-opacity:1"
         d="M 8.7185878,4.0337352 -2.2072895,0.01601326 8.7185884,-4.0017078 c -1.7454984,2.3720609 -1.7354408,5.6174519 -6e-7,8.035443 z"
         transform="scale(-0.6)" />
    </marker>
    <marker
       style="overflow:visible"
       id="Arrow2Mend"
       refX="0"
       refY="0"
       orient="auto">
      <path
         transform="scale(-0.6)"
         d="M 8.7185878,4.0337352 -2.2072895,0.01601326 8.7185884,-4.0017078 c -1.7454984,2.3720609 -1.7354408,5.6174519 -6e-7,8.035443 z"
         style="fill:#ff5555;fill-opacity:1;fill-rule:evenodd;stroke:#ff5555;stroke-width:0.625;stroke-linejoin:round;stroke-opacity:1"
         id="path1826" />
    </marker>
    <marker
       style="overflow:visible"
       id="Arrow1Lend"
       refX="0"
       refY="0"
       orient="auto">
      <path
         transform="matrix(-0.8,0,0,-0.8,-10,0)"
         style="fill:#000000;fill-opacity:1;fill-rule:evenodd;stroke:#000000;stroke-width:1.00000003pt;stroke-opacity:1"
         d="M 0,0 5,-5 -12.5,0 5,5 Z"
         id="path1802" />
    </marker>
  </defs>
  <metadata
     id="metadata5">
    <rdf:RDF>
      <cc:Work
         rdf:about="">
        <dc:format>image/svg+xml</dc:format>
        <dc:type
           rdf:resource="http://purl.org/dc/dcmitype/StillImage" />
        <dc:title></dc:title>
      </cc:Work>
    </rdf:RDF>
  </metadata>
  <g
     transform="translate(81.082065,-95.230831)"
     id="layer1">
    <path
       id="path1527"
       d=""
       style="fill:#000000;stroke-width:0.26458332" />
    <path
       id="path1525"
       d=""
       style="fill:#000000;stroke-width:0.26458332" />
    <path
       id="path1523"
       d=""
       style="fill:#000000;stroke-width:0.26458332" />
    <g
       transform="matrix(0.84382942,0,0,0.84382942,46.634725,21.443261)"
       id="g2903">
      <g
         id="g1463"
         transform="matrix(2.0160523,0,0,2.0160523,-114.87459,-180.66117)">
        <rect
           y="180.20537"
           x="88.635414"
           height="4.9136906"
           width="4.9136906"
           id="rect1368"
           style="opacity:1;fill:none;fill-opacity:1;stroke:#000000;stroke-width:1;stroke-linejoin:round;stroke-miterlimit:4;stroke-dasharray:none;stroke-dashoffset:0;stroke-opacity:1" />
        <rect
           y="180.20537"
           x="93.549103"
           height="4.9136906"
           width="4.9136906"
           id="rect1368-3"
           style="opacity:1;fill:none;fill-opacity:1;stroke:#000000;stroke-width:1;stroke-linejoin:round;stroke-miterlimit:4;stroke-dasharray:none;stroke-dashoffset:0;stroke-opacity:1" />
        <rect
           y="180.20537"
           x="98.462791"
           height="4.9136906"
           width="4.9136906"
           id="rect1368-6"
           style="opacity:1;fill:none;fill-opacity:1;stroke:#000000;stroke-width:1;stroke-linejoin:round;stroke-miterlimit:4;stroke-dasharray:none;stroke-dashoffset:0;stroke-opacity:1" />
        <rect
           y="180.20537"
           x="103.37648"
           height="4.9136906"
           width="4.9136906"
           id="rect1368-5"
           style="opacity:1;fill:none;fill-opacity:1;stroke:#000000;stroke-width:1;stroke-linejoin:round;stroke-miterlimit:4;stroke-dasharray:none;stroke-dashoffset:0;stroke-opacity:1" />
        <rect
           y="180.20537"
           x="108.29017"
           height="4.9136906"
           width="4.9136906"
           id="rect1368-3-3"
           style="opacity:1;fill:none;fill-opacity:1;stroke:#000000;stroke-width:1;stroke-linejoin:round;stroke-miterlimit:4;stroke-dasharray:none;stroke-dashoffset:0;stroke-opacity:1" />
        <rect
           y="180.20537"
           x="113.20386"
           height="4.9136906"
           width="4.9136906"
           id="rect1368-6-5"
           style="opacity:1;fill:none;fill-opacity:1;stroke:#000000;stroke-width:1;stroke-linejoin:round;stroke-miterlimit:4;stroke-dasharray:none;stroke-dashoffset:0;stroke-opacity:1" />
        <rect
           y="180.20537"
           x="118.11755"
           height="4.9136906"
           width="4.9136906"
           id="rect1368-62"
           style="opacity:1;fill:none;fill-opacity:1;stroke:#000000;stroke-width:1;stroke-linejoin:round;stroke-miterlimit:4;stroke-dasharray:none;stroke-dashoffset:0;stroke-opacity:1" />
        <rect
           y="180.20537"
           x="123.03124"
           height="4.9136906"
           width="4.9136906"
           id="rect1368-3-9"
           style="opacity:1;fill:none;fill-opacity:1;stroke:#000000;stroke-width:1;stroke-linejoin:round;stroke-miterlimit:4;stroke-dasharray:none;stroke-dashoffset:0;stroke-opacity:1" />
        <rect
           y="180.20537"
           x="127.94493"
           height="4.9136906"
           width="4.9136906"
           id="rect1368-6-1"
           style="opacity:1;fill:none;fill-opacity:1;stroke:#000000;stroke-width:1;stroke-linejoin:round;stroke-miterlimit:4;stroke-dasharray:none;stroke-dashoffset:0;stroke-opacity:1" />
        <rect
           y="180.20537"
           x="132.85863"
           height="4.9136906"
           width="4.9136906"
           id="rect1368-2"
           style="opacity:1;fill:none;fill-opacity:1;stroke:#000000;stroke-width:1;stroke-linejoin:round;stroke-miterlimit:4;stroke-dasharray:none;stroke-dashoffset:0;stroke-opacity:1" />
        <rect
           y="180.20537"
           x="137.77231"
           height="4.9136906"
           width="4.9136906"
           id="rect1368-3-7"
           style="opacity:1;fill:none;fill-opacity:1;stroke:#000000;stroke-width:1;stroke-linejoin:round;stroke-miterlimit:4;stroke-dasharray:none;stroke-dashoffset:0;stroke-opacity:1" />
        <rect
           y="180.20537"
           x="142.686"
           height="4.9136906"
           width="4.9136906"
           id="rect1368-6-0"
           style="opacity:1;fill:none;fill-opacity:1;stroke:#000000;stroke-width:1;stroke-linejoin:round;stroke-miterlimit:4;stroke-dasharray:none;stroke-dashoffset:0;stroke-opacity:1" />
        <rect
           y="180.20537"
           x="147.5997"
           height="4.9136906"
           width="4.9136906"
           id="rect1368-9"
           style="opacity:1;fill:none;fill-opacity:1;stroke:#000000;stroke-width:1;stroke-linejoin:round;stroke-miterlimit:4;stroke-dasharray:none;stroke-dashoffset:0;stroke-opacity:1" />
        <rect
           y="180.20537"
           x="152.51338"
           height="4.9136906"
           width="4.9136906"
           id="rect1368-3-36"
           style="opacity:1;fill:none;fill-opacity:1;stroke:#000000;stroke-width:1;stroke-linejoin:round;stroke-miterlimit:4;stroke-dasharray:none;stroke-dashoffset:0;stroke-opacity:1" />
        <rect
           y="180.20537"
           x="157.42708"
           height="4.9136906"
           width="4.9136906"
           id="rect1368-6-06"
           style="opacity:1;fill:none;fill-opacity:1;stroke:#000000;stroke-width:1;stroke-linejoin:round;stroke-miterlimit:4;stroke-dasharray:none;stroke-dashoffset:0;stroke-opacity:1" />
      </g>
      <g
         id="g1510"
         transform="translate(8.793179,-33.265292)">
        <text
           id="text1467-2"
           y="196.2793"
           x="105.39508"
           style="font-style:normal;font-variant:normal;font-weight:normal;font-stretch:normal;font-size:15.36196423px;line-height:1.25;font-family:'Roboto Condensed';-inkscape-font-specification:'Roboto Condensed, ';letter-spacing:0px;word-spacing:0px;fill:#000000;fill-opacity:1;stroke:none;stroke-width:0.38404912"
           xml:space="preserve"><tspan
             id="tspan1469-1"
             style="font-style:normal;font-variant:normal;font-weight:500;font-stretch:normal;font-family:'Roboto Condensed';-inkscape-font-specification:'Roboto Condensed,  Medium';stroke-width:0.38404912"
             y="196.2793"
             x="105.39508">Kafka topic</tspan></text>
        <path
           id="path1505"
           d="m 85.011891,209.4931 c -1.501075,-0.41668 -2.862141,-1.7897 -3.270578,-3.29932 -0.568371,-2.10075 0.729937,-4.60752 2.794746,-5.39608 l 0.684897,-0.26156 v -1.36705 -1.36706 l -0.836605,-0.26371 c -1.675247,-0.52808 -3.261714,-2.08375 -3.810765,-3.73678 -0.413899,-1.24614 -0.281845,-3.27915 0.288429,-4.44047 0.753245,-1.53393 2.357464,-2.8614 3.847174,-3.18348 l 0.511767,-0.11065 v -1.32985 c 0,-1.30753 -0.0073,-1.3325 -0.433034,-1.48761 -2.061761,-0.75104 -3.104053,-2.22945 -3.102747,-4.401 5.79e-4,-0.97091 0.07453,-1.32105 0.415716,-1.96833 0.496485,-0.94192 1.213389,-1.64718 2.175263,-2.13993 0.996329,-0.5104 2.769943,-0.51815 3.799249,-0.0166 1.003413,0.48893 1.840255,1.34586 2.30442,2.35973 0.532894,1.16399 0.460788,2.93735 -0.16269,4.00124 -0.546391,0.93234 -1.472727,1.74925 -2.373787,2.09337 l -0.732787,0.27985 v 1.28731 1.28731 l 0.763029,0.19556 c 0.82183,0.21063 1.694118,0.72867 2.494268,1.48132 l 0.501625,0.47184 1.005922,-0.7178 1.005924,-0.71782 -0.0042,-1.23221 c -0.0069,-2.00222 0.841139,-3.41766 2.550637,-4.25714 1.176656,-0.57783 2.89195,-0.61054 3.921525,-0.0748 1.707051,0.8883 2.563211,2.23032 2.563211,4.01779 0,0.60085 -0.0842,1.37361 -0.18719,1.71725 -0.25737,0.85902 -1.44807,2.13661 -2.407818,2.58354 -1.523799,0.70959 -3.918107,0.36112 -4.869709,-0.70875 -0.164984,-0.18548 -0.368565,-0.33725 -0.452403,-0.33725 -0.08384,0 -0.606545,0.32405 -1.161572,0.72011 -1.00151,0.71466 -1.008213,0.72449 -0.886065,1.2991 0.155949,0.73364 0.158152,2.12456 0.0047,2.941 l -0.118418,0.62987 0.998569,0.66923 c 0.549212,0.36808 1.044765,0.66923 1.101225,0.66923 0.05646,0 0.424996,-0.24604 0.81897,-0.54677 0.904939,-0.69076 1.767182,-0.92494 3.066873,-0.83298 1.16097,0.0822 1.781641,0.35514 2.709798,1.19183 0.95468,0.86061 1.38044,1.89165 1.37809,3.33726 -0.003,1.86205 -0.81172,3.21852 -2.421564,4.06185 -0.673992,0.35307 -1.001931,0.41988 -2.061246,0.41988 -1.059316,0 -1.387255,-0.0668 -2.061247,-0.41988 -1.635026,-0.85652 -2.480979,-2.30436 -2.495925,-4.27174 l -0.0094,-1.23344 -0.998166,-0.70121 -0.998167,-0.70121 -0.610216,0.55129 c -0.686416,0.62014 -1.861712,1.25557 -2.629227,1.42151 l -0.511768,0.11065 v 1.38329 1.3833 l 0.738733,0.28212 c 0.901048,0.34412 2.008144,1.3357 2.449966,2.19433 0.215936,0.41965 0.352279,1.04753 0.399651,1.84046 0.06208,1.03909 0.01886,1.31877 -0.316361,2.04707 -0.947503,2.05858 -3.265004,3.17748 -5.370657,2.59298 z m 2.390239,-2.57433 c 0.719746,-0.53737 0.994409,-1.04891 0.994409,-1.85204 0,-2.22633 -2.834441,-3.05839 -4.077879,-1.19708 -1.30594,1.95487 1.212929,4.44568 3.08347,3.04912 z m 11.039965,-6.41543 c 1.449095,-0.74936 1.640955,-2.59271 0.384658,-3.69575 -0.466134,-0.40928 -0.673413,-0.48027 -1.402109,-0.48027 -0.728696,0 -0.935976,0.071 -1.402109,0.48027 -1.224713,1.07531 -1.09749,2.78758 0.269029,3.62079 0.599077,0.36528 1.526585,0.39761 2.150531,0.075 z m -10.75919,-5.85796 c 1.441892,-0.74493 2.043223,-2.67867 1.288102,-4.14223 -1.01459,-1.96648 -3.57483,-2.28672 -5.06803,-0.63393 -0.501062,0.55462 -0.884802,1.44328 -0.884802,2.04902 0,0.58115 0.371396,1.47255 0.832185,1.99736 1.008573,1.1487 2.47952,1.4288 3.832545,0.72978 z m 10.913012,-7.43361 c 0.712598,-0.50706 1.033265,-1.09409 1.033265,-1.89158 0,-1.88859 -2.22268,-2.88828 -3.685328,-1.65754 -0.947871,0.79758 -1.012318,2.15749 -0.148847,3.14092 0.762435,0.86837 1.91761,1.03672 2.80091,0.4082 z M 87.004869,180.9957 c 0.86598,-0.36183 1.365426,-1.09957 1.365426,-2.0169 0,-0.98053 -0.331667,-1.56789 -1.142762,-2.02376 -0.460755,-0.25896 -0.779378,-0.32708 -1.240552,-0.26522 -2.282301,0.30612 -2.791836,3.27247 -0.723406,4.21143 0.797735,0.36213 1.065839,0.37668 1.741294,0.0944 z"
           style="fill:#000000;stroke-width:0.15746695" />
      </g>
      <g
         id="g1795"
         transform="translate(-29.934187,2.1381562)">
        <path
           id="path1529"
           d="m 196.13978,291.91921 c -0.79452,-0.25046 -1.49533,-0.82133 -1.98625,-1.61798 -1.16093,-1.8839 -5.75698,-10.0533 -5.85543,-10.4079 -0.14258,-0.51356 -0.14248,-1.40855 2.2e-4,-1.92256 0.18236,-0.65681 5.9917,-10.73914 6.44048,-11.1777 0.21513,-0.21022 0.65054,-0.5096 0.96758,-0.66529 l 0.57643,-0.28309 h 6.36565 6.36563 l 0.57645,0.28309 c 0.31704,0.15569 0.75245,0.45507 0.96758,0.66529 0.44878,0.43856 6.2581,10.52089 6.44046,11.1777 0.14278,0.5143 0.14278,1.40908 0,1.92337 -0.18236,0.65683 -5.99168,10.73915 -6.44046,11.17771 -0.21513,0.21021 -0.65054,0.5096 -0.96758,0.6653 l -0.57645,0.28307 -6.21286,0.0202 c -5.06006,0.0164 -6.2961,-0.006 -6.66145,-0.12118 z m 8.21097,-5.71052 c 2.65921,-0.59694 4.88558,-2.66499 5.8048,-5.392 0.25051,-0.74317 0.27497,-0.95359 0.27826,-2.39348 0.003,-1.50781 -0.01,-1.61799 -0.30858,-2.45417 -0.17169,-0.48152 -0.48657,-1.18735 -0.69971,-1.5685 -0.41002,-0.73315 -1.7414,-2.21088 -2.21052,-2.45346 -0.72454,-0.37469 -1.51105,0.0707 -1.51105,0.85562 0,0.37184 0.0718,0.47681 0.89277,1.30642 1.33077,1.34469 1.8572,2.56755 1.8572,4.31409 0,1.68532 -0.53632,2.98167 -1.73047,4.18276 -1.19789,1.20486 -2.42942,1.72109 -4.11122,1.72334 -1.71186,0.003 -2.90907,-0.49605 -4.14841,-1.72681 -1.21487,-1.20648 -1.71927,-2.42671 -1.72147,-4.16459 -0.003,-1.80185 0.46419,-2.89746 1.85755,-4.36282 0.9324,-0.98057 1.01758,-1.17039 0.76951,-1.71482 -0.13614,-0.29875 -0.56229,-0.55753 -0.91723,-0.55695 -0.33731,3.8e-4 -0.79565,0.30917 -1.45675,0.98093 -1.50584,1.53011 -2.29129,3.46312 -2.29129,5.63896 0,1.36786 0.23843,2.35997 0.8807,3.66441 0.40699,0.82663 0.61576,1.10482 1.45238,1.9354 1.09929,1.09138 1.76276,1.52293 2.99365,1.94719 1.44763,0.49898 2.82154,0.57484 4.31988,0.23848 z m -1.10309,-6.83122 c 0.49487,-0.34661 0.52115,-0.57616 0.52115,-4.55161 0,-3.69215 -7.8e-4,-3.70702 -0.23296,-4.05182 -0.46293,-0.68768 -1.20455,-0.76579 -1.76075,-0.18545 l -0.29792,0.31085 -0.0315,3.73642 c -0.0337,4.0079 -0.001,4.3393 0.45503,4.69854 0.32642,0.25676 1.01058,0.27864 1.34689,0.043 z"
           style="fill:#6db33f;fill-opacity:1;stroke-width:0.10185026" />
        <text
           id="text1467-2-7"
           y="273.37173"
           x="225.22354"
           style="font-style:normal;font-variant:normal;font-weight:normal;font-stretch:normal;font-size:15.36196423px;line-height:1.25;font-family:'Roboto Condensed';-inkscape-font-specification:'Roboto Condensed, ';letter-spacing:0px;word-spacing:0px;fill:#000000;fill-opacity:1;stroke:none;stroke-width:0.38404912"
           xml:space="preserve"><tspan
             id="tspan1469-1-9"
             style="font-style:normal;font-variant:normal;font-weight:500;font-stretch:normal;font-family:'Roboto Condensed';-inkscape-font-specification:'Roboto Condensed,  Medium';stroke-width:0.38404912"
             y="273.37173"
             x="225.22354">Messaging application</tspan><tspan
             id="tspan1558"
             style="font-style:normal;font-variant:normal;font-weight:500;font-stretch:normal;font-family:'Roboto Condensed';-inkscape-font-specification:'Roboto Condensed,  Medium';stroke-width:0.38404912"
             y="292.57419"
             x="225.22354">(Spring Boot)</tspan></text>
      </g>
      <path
         style="fill:#000000;stroke-width:0.04940443"
         d="m 241.07628,255.69715 c -1.91744,-0.0613 -2.67236,-0.15591 -3.13717,-0.39303 -0.10703,-0.0546 -0.41353,-0.31593 -0.68113,-0.58073 -0.81113,-0.80268 -1.19539,-1.44077 -1.30151,-2.16122 -0.0891,-0.60502 -0.0892,-5.90944 -5e-5,-6.39787 0.097,-0.53169 0.26123,-0.93384 0.58137,-1.42364 0.15423,-0.23597 0.28065,-0.45362 0.28095,-0.48368 3.7e-4,-0.0301 -0.12688,-0.25562 -0.28259,-0.50126 -0.15572,-0.24563 -0.3363,-0.5995 -0.40129,-0.78638 -0.23193,-0.66693 -0.24628,-0.89436 -0.24249,-3.84518 0.004,-3.26906 0.0192,-3.44614 0.34698,-4.10353 0.12276,-0.24618 0.31087,-0.56343 0.41803,-0.70501 0.10715,-0.14157 0.19483,-0.28535 0.19483,-0.3195 0,-0.0341 -0.0893,-0.18098 -0.19855,-0.3263 -0.31746,-0.42252 -0.63433,-1.11462 -0.69209,-1.51168 -0.0276,-0.1902 -0.0642,-1.40185 -0.0811,-2.69254 -0.0437,-3.32798 0.022,-3.82333 0.62462,-4.713 0.16375,-0.24172 0.29772,-0.48418 0.29772,-0.53878 0,-0.0546 -0.0522,-0.16806 -0.11601,-0.25215 -0.21015,-0.2769 -0.564,-0.94185 -0.6475,-1.21675 -0.12176,-0.4008 -0.18819,-2.33477 -0.15862,-4.61764 0.039,-3.01397 0.019,-2.96061 1.78671,-4.75911 1.79893,-1.83024 5.00472,-4.87497 5.62777,-5.345 0.13825,-0.1043 0.44199,-0.28106 0.67498,-0.39279 l 0.4236,-0.20314 1.05853,-0.0459 c 0.5866,-0.0254 6.96903,-0.0466 14.31576,-0.0474 l 13.25725,-0.002 0.44886,0.23183 c 0.24688,0.12751 0.61455,0.36348 0.81704,0.52441 0.99112,0.7876 2.94197,2.57709 4.72187,4.3313 1.66068,1.63674 2.00255,2.02494 2.27871,2.58767 0.35256,0.71839 0.37513,0.9191 0.40493,3.60048 0.041,3.68648 -0.0544,4.35692 -0.74579,5.24637 -0.12515,0.16099 -0.22754,0.31044 -0.22754,0.33209 0,0.0216 0.13179,0.2401 0.29288,0.48542 0.54258,0.82631 0.64016,1.27762 0.67859,3.13856 0.0353,1.71002 -0.0501,4.24589 -0.15635,4.6438 -0.0889,0.33292 -0.33887,0.81195 -0.62413,1.19615 -0.10505,0.1415 -0.19099,0.2905 -0.19099,0.33112 0,0.0406 0.0995,0.21627 0.22122,0.39031 0.12167,0.17405 0.31004,0.50304 0.4186,0.73108 0.17303,0.36345 0.20426,0.48477 0.25297,0.98279 0.0833,0.85186 0.0885,5.81401 0.007,6.22496 -0.11306,0.56654 -0.25163,0.90849 -0.56166,1.386 -0.16666,0.25666 -0.30322,0.48889 -0.30347,0.51606 -1.9e-4,0.0272 0.12755,0.255 0.28401,0.50628 0.32304,0.51879 0.49023,0.95767 0.56934,1.4946 0.0863,0.58573 0.11507,2.88316 0.0594,4.74282 -0.06,2.00374 -0.0794,2.10196 -0.55406,2.81165 -0.37463,0.56008 -1.2152,1.40648 -1.55387,1.56464 -0.31136,0.1454 -0.92285,0.24965 -1.90207,0.32427 -0.88917,0.0678 -34.5647,0.10465 -36.58398,0.0401 z m 37.51156,-3.07438 0.35694,-0.35935 v -2.88281 -2.88281 l -0.35818,-0.40452 -0.35819,-0.40451 -12.94396,-0.0287 c -7.11918,-0.0158 -15.83411,-0.0128 -19.36653,0.007 -5.74906,0.0317 -6.43839,0.0436 -6.57335,0.11444 -0.1832,0.0961 -0.54601,0.48161 -0.62825,0.66756 -0.0441,0.0996 -0.064,0.88585 -0.0754,2.97243 l -0.0155,2.83694 0.35957,0.36199 0.35958,0.36199 h 19.44311 19.44312 z m -3.88221,-2.09064 c -0.67636,-0.33704 -0.88804,-1.11958 -0.49987,-1.84787 0.18657,-0.35003 0.41521,-0.55833 0.73094,-0.66592 0.30164,-0.10278 0.48974,-0.095 0.82945,0.0343 0.78649,0.2994 1.12138,1.15285 0.74324,1.89415 -0.2469,0.48404 -0.62786,0.71042 -1.19848,0.7122 -0.27738,7.9e-4 -0.40089,-0.025 -0.60528,-0.12689 z m -32.12258,-0.0207 c -0.69647,-0.0392 -1.1167,-0.14075 -1.26881,-0.30671 -0.0568,-0.062 -0.15544,-0.21275 -0.21917,-0.33503 -0.15801,-0.30314 -0.16454,-0.90803 -0.0133,-1.23511 0.12925,-0.27961 0.38181,-0.52785 0.60953,-0.59913 0.20969,-0.0656 3.55098,-0.13104 7.02408,-0.13748 l 2.40219,-0.004 0.35089,0.36939 c 0.19298,0.20316 0.36557,0.42793 0.38353,0.49948 0.0498,0.1983 -0.0112,0.81785 -0.10198,1.03635 -0.0444,0.10696 -0.20695,0.32231 -0.36114,0.47855 l -0.28035,0.28407 -3.9539,-0.007 c -2.17465,-0.004 -4.23183,-0.0232 -4.57152,-0.0424 z m 35.93047,-8.09044 0.43126,-0.43326 v -2.91272 -2.91272 l -0.35694,-0.35935 -0.35695,-0.35934 h -19.44312 -19.44311 l -0.35695,0.35934 -0.35695,0.35935 v 2.91272 2.91272 l 0.43127,0.43326 0.43125,0.43327 h 19.29449 19.2945 z m -7.5747,-2.00355 c -0.4765,-0.1325 -0.81159,-0.45275 -0.93504,-0.89368 -0.0808,-0.28843 -0.0456,-0.7921 0.0726,-1.03702 0.40506,-0.84039 1.52764,-0.97812 2.18,-0.26748 0.4349,0.47376 0.45246,1.16452 0.0439,1.72722 -0.28791,0.39656 -0.88551,0.60328 -1.3614,0.47096 z m 3.88033,-0.0507 c -0.60845,-0.28335 -0.95333,-1.07162 -0.74425,-1.70111 0.10284,-0.30964 0.40546,-0.66089 0.68666,-0.79702 0.27791,-0.13454 0.81222,-0.13966 1.0965,-0.0105 0.2957,0.13432 0.6501,0.55436 0.74596,0.88408 0.18457,0.63493 -0.11256,1.28002 -0.73218,1.58967 -0.37986,0.18979 -0.69743,0.20034 -1.05269,0.0349 z m -33.37228,-0.31614 c -0.71908,-0.80148 -0.71323,-1.29787 0.0245,-2.07991 l 0.33325,-0.35326 h 4.6087 4.6087 l 0.33035,0.35681 c 0.71535,0.77264 0.73819,1.23134 0.0986,1.98092 l -0.32383,0.37952 h -4.71271 -4.71271 z m 37.14457,-7.88479 0.36054,-0.36297 -0.0193,-2.53954 c -0.0211,-2.78568 -0.0342,-2.91838 -0.31488,-3.2139 -0.23199,-0.24424 -0.49027,-0.34701 -1.00549,-0.40008 -0.29286,-0.0302 -6.61388,-0.0569 -16.72484,-0.0708 -18.25137,-0.0251 -20.71305,0.002 -21.58523,0.23675 -0.23866,0.0643 -0.49537,0.31953 -0.57982,0.57655 -0.0434,0.13224 -0.0656,0.91688 -0.0792,2.79786 l -0.0188,2.61407 0.36012,0.36255 0.36012,0.36254 h 19.4431 19.44312 z m -34.13095,-1.56886 c -1.12766,-0.0164 -2.16144,-0.0471 -2.29731,-0.0683 -0.71033,-0.11099 -1.22855,-0.64678 -1.22327,-1.26474 0.004,-0.43684 0.28705,-1.04339 0.5738,-1.22845 0.17089,-0.11028 1.57714,-0.15208 5.07117,-0.15072 3.8972,0.002 4.55393,0.028 4.78557,0.19294 0.35469,0.25256 0.58864,1.07043 0.44894,1.5694 -0.0944,0.3371 -0.43522,0.6741 -0.78811,0.77925 -0.59872,0.17839 -2.54832,0.22903 -6.57079,0.17066 z m 26.51622,0.002 c -0.29304,-0.0727 -0.45016,-0.17235 -0.68696,-0.43573 -0.22091,-0.2457 -0.38598,-0.62756 -0.38598,-0.89288 0,-0.45908 0.50302,-1.12333 0.93869,-1.23957 0.25842,-0.0689 0.75441,-0.0357 1.00034,0.067 0.45216,0.18892 0.73779,0.6357 0.7476,1.16939 0.007,0.42401 -0.11224,0.7274 -0.38858,0.98213 -0.34905,0.32174 -0.80867,0.45291 -1.22511,0.34961 z m 3.91817,-0.045 c -0.336,-0.11597 -0.75436,-0.5265 -0.83592,-0.82025 -0.0703,-0.25327 -0.0694,-0.65479 0.002,-0.86669 0.15454,-0.45896 0.64331,-0.83124 1.14348,-0.87096 0.42893,-0.0341 0.67143,0.0453 0.97664,0.31975 0.33523,0.3014 0.43943,0.53245 0.4402,0.97612 7.9e-4,0.61686 -0.35507,1.12177 -0.90687,1.28563 -0.32003,0.095 -0.48995,0.0901 -0.81945,-0.0236 z m 3.66592,-8.14044 0.38398,-0.38172 v -2.88308 -2.88306 l -0.37855,-0.41585 -0.37855,-0.41584 -17.5429,0.006 c -9.64861,0.003 -18.37995,0.0197 -19.40299,0.0371 l -1.86007,0.0314 -0.23948,0.20305 c -0.13171,0.11168 -0.29512,0.31113 -0.36312,0.44323 l -0.12366,0.24018 -0.0146,2.8387 -0.0146,2.83871 0.35923,0.36164 0.35922,0.36164 h 19.4161 19.41608 z m -35.28602,-1.99203 c -1.20654,-0.0389 -1.39198,-0.0697 -1.73579,-0.28767 -0.45326,-0.28745 -0.67631,-0.75212 -0.58864,-1.22634 0.0642,-0.34762 0.28092,-0.77968 0.47757,-0.95234 0.14166,-0.12438 0.21338,-0.14461 0.64494,-0.18189 0.62878,-0.0544 8.2709,-0.0548 8.77453,-5.5e-4 0.46408,0.05 0.58869,0.13813 0.82672,0.58471 0.13509,0.25346 0.16886,0.37794 0.18495,0.68185 0.0186,0.35068 0.0104,0.38722 -0.14499,0.64352 -0.18145,0.29939 -0.51817,0.55801 -0.83905,0.64441 -0.45765,0.12323 -4.96769,0.17919 -7.60024,0.0943 z m 31.60044,-0.0208 c -0.47207,-0.16825 -0.83015,-0.63855 -0.86154,-1.13152 -0.028,-0.43859 0.0563,-0.69144 0.3264,-0.98023 0.33524,-0.3584 0.52328,-0.43907 1.02343,-0.43907 0.48086,0 0.61401,0.0532 0.88566,0.35387 0.38355,0.42455 0.49797,1.01226 0.28862,1.48265 -0.26566,0.59691 -1.04844,0.93322 -1.66257,0.7143 z"
         id="path1577-0-2" />
      <text
         xml:space="preserve"
         style="font-style:normal;font-variant:normal;font-weight:normal;font-stretch:normal;font-size:15.36196423px;line-height:1.25;font-family:'Roboto Condensed';-inkscape-font-specification:'Roboto Condensed, ';letter-spacing:0px;word-spacing:0px;fill:#000000;fill-opacity:1;stroke:none;stroke-width:0.38404912"
         x="-26.994106"
         y="184.45413"
         id="text1467-2-7-1"><tspan
           x="-26.994106"
           y="184.45413"
           style="font-style:normal;font-variant:normal;font-weight:500;font-stretch:normal;font-family:'Roboto Condensed';-inkscape-font-specification:'Roboto Condensed, Medium';text-align:center;text-anchor:middle;stroke-width:0.38404912"
           id="tspan1558-9">Various</tspan><tspan
           id="tspan1774"
           x="-26.994106"
           y="203.65659"
           style="font-style:normal;font-variant:normal;font-weight:500;font-stretch:normal;font-family:'Roboto Condensed';-inkscape-font-specification:'Roboto Condensed, Medium';text-align:center;text-anchor:middle;stroke-width:0.38404912">micro-services</tspan></text>
      <path
         style="fill:#000000;stroke-width:0.04940443"
         d="m -61.977065,285.49776 c -1.91744,-0.0613 -2.67236,-0.15591 -3.13717,-0.39303 -0.10703,-0.0546 -0.41353,-0.31593 -0.68113,-0.58073 -0.81113,-0.80268 -1.19539,-1.44077 -1.30151,-2.16122 -0.0891,-0.60502 -0.0892,-5.90944 -5e-5,-6.39787 0.097,-0.53169 0.26123,-0.93384 0.58137,-1.42364 0.15423,-0.23597 0.28065,-0.45362 0.28095,-0.48368 3.7e-4,-0.0301 -0.12688,-0.25562 -0.28259,-0.50126 -0.15572,-0.24563 -0.3363,-0.5995 -0.40129,-0.78638 -0.23193,-0.66693 -0.24628,-0.89436 -0.24249,-3.84518 0.004,-3.26906 0.0192,-3.44614 0.34698,-4.10353 0.12276,-0.24618 0.31087,-0.56343 0.41803,-0.70501 0.10715,-0.14157 0.19483,-0.28535 0.19483,-0.3195 0,-0.0341 -0.0893,-0.18098 -0.19855,-0.3263 -0.31746,-0.42252 -0.63433,-1.11462 -0.69209,-1.51168 -0.0276,-0.1902 -0.0642,-1.40185 -0.0811,-2.69254 -0.0437,-3.32798 0.022,-3.82333 0.62462,-4.713 0.16375,-0.24172 0.29772,-0.48418 0.29772,-0.53878 0,-0.0546 -0.0522,-0.16806 -0.11601,-0.25215 -0.21015,-0.2769 -0.564,-0.94185 -0.6475,-1.21675 -0.12176,-0.4008 -0.18819,-2.33477 -0.15862,-4.61764 0.039,-3.01397 0.019,-2.96061 1.78671,-4.75911 1.79893,-1.83024 5.00472,-4.87497 5.62777,-5.345 0.13825,-0.1043 0.44199,-0.28106 0.67498,-0.39279 l 0.4236,-0.20314 1.05853,-0.0459 c 0.5866,-0.0254 6.96903,-0.0466 14.31576,-0.0474 l 13.25725,-0.002 0.44886,0.23183 c 0.24688,0.12751 0.61455,0.36348 0.81704,0.52441 0.99112,0.7876 2.94197,2.57709 4.72187,4.3313 1.66068,1.63674 2.00255,2.02494 2.27871,2.58767 0.35256,0.71839 0.37513,0.9191 0.40493,3.60048 0.041,3.68648 -0.0544,4.35692 -0.74579,5.24637 -0.12515,0.16099 -0.22754,0.31044 -0.22754,0.33209 0,0.0216 0.13179,0.2401 0.29288,0.48542 0.54258,0.82631 0.64016,1.27762 0.67859,3.13856 0.0353,1.71002 -0.0501,4.24589 -0.15635,4.6438 -0.0889,0.33292 -0.33887,0.81195 -0.62413,1.19615 -0.10505,0.1415 -0.19099,0.2905 -0.19099,0.33112 0,0.0406 0.0995,0.21627 0.22122,0.39031 0.12167,0.17405 0.31004,0.50304 0.4186,0.73108 0.17303,0.36345 0.20426,0.48477 0.25297,0.98279 0.0833,0.85186 0.0885,5.81401 0.007,6.22496 -0.11306,0.56654 -0.25163,0.90849 -0.56166,1.386 -0.16666,0.25666 -0.30322,0.48889 -0.30347,0.51606 -1.9e-4,0.0272 0.12755,0.255 0.28401,0.50628 0.32304,0.51879 0.49023,0.95767 0.56934,1.4946 0.0863,0.58573 0.11507,2.88316 0.0594,4.74282 -0.06,2.00374 -0.0794,2.10196 -0.55406,2.81165 -0.37463,0.56008 -1.2152,1.40648 -1.55387,1.56464 -0.31136,0.1454 -0.92285,0.24965 -1.90207,0.32427 -0.88917,0.0678 -34.5647,0.10465 -36.58398,0.0401 z m 37.51156,-3.07438 0.35694,-0.35935 v -2.88281 -2.88281 l -0.35818,-0.40452 -0.35819,-0.40451 -12.94396,-0.0287 c -7.11918,-0.0158 -15.83411,-0.0128 -19.36653,0.007 -5.74906,0.0317 -6.43839,0.0436 -6.57335,0.11444 -0.1832,0.0961 -0.54601,0.48161 -0.62825,0.66756 -0.0441,0.0996 -0.064,0.88585 -0.0754,2.97243 l -0.0155,2.83694 0.35957,0.36199 0.35958,0.36199 h 19.44311 19.44312 z m -3.88221,-2.09064 c -0.67636,-0.33704 -0.88804,-1.11958 -0.49987,-1.84787 0.18657,-0.35003 0.41521,-0.55833 0.73094,-0.66592 0.30164,-0.10278 0.48974,-0.095 0.82945,0.0343 0.78649,0.2994 1.12138,1.15285 0.74324,1.89415 -0.2469,0.48404 -0.62786,0.71042 -1.19848,0.7122 -0.27738,8.2e-4 -0.40089,-0.025 -0.60528,-0.12689 z m -32.12258,-0.0207 c -0.69647,-0.0392 -1.1167,-0.14075 -1.26881,-0.30671 -0.0568,-0.062 -0.15544,-0.21275 -0.21917,-0.33503 -0.15801,-0.30314 -0.16454,-0.90803 -0.0133,-1.23511 0.12925,-0.27961 0.38181,-0.52785 0.60953,-0.59913 0.20969,-0.0656 3.55098,-0.13104 7.02408,-0.13748 l 2.40219,-0.004 0.35089,0.36939 c 0.19298,0.20316 0.36557,0.42793 0.38353,0.49948 0.0498,0.1983 -0.0112,0.81785 -0.10198,1.03635 -0.0444,0.10696 -0.20695,0.32231 -0.36114,0.47855 l -0.28035,0.28407 -3.9539,-0.007 c -2.17465,-0.004 -4.23183,-0.0232 -4.57152,-0.0424 z m 35.93047,-8.09044 0.43126,-0.43326 v -2.91272 -2.91272 l -0.35694,-0.35935 -0.35695,-0.35934 h -19.44312 -19.44311 l -0.35695,0.35934 -0.35695,0.35935 v 2.91272 2.91272 l 0.43127,0.43326 0.43125,0.43327 h 19.29449 19.2945 z m -7.5747,-2.00355 c -0.4765,-0.1325 -0.81159,-0.45275 -0.93504,-0.89368 -0.0808,-0.28843 -0.0456,-0.7921 0.0726,-1.03702 0.40506,-0.84039 1.52764,-0.97812 2.18,-0.26748 0.4349,0.47376 0.45246,1.16452 0.0439,1.72722 -0.28791,0.39656 -0.88551,0.60328 -1.3614,0.47096 z m 3.88033,-0.0507 c -0.60845,-0.28335 -0.95333,-1.07162 -0.74425,-1.70111 0.10284,-0.30964 0.40546,-0.66089 0.68666,-0.79702 0.27791,-0.13454 0.81222,-0.13966 1.0965,-0.0105 0.2957,0.13433 0.6501,0.55436 0.74596,0.88409 0.18457,0.63492 -0.11256,1.28002 -0.73218,1.58966 -0.37986,0.1898 -0.69743,0.20034 -1.05269,0.0349 z m -33.37228,-0.31612 c -0.71908,-0.80148 -0.71323,-1.29787 0.0245,-2.07991 l 0.33325,-0.35326 h 4.6087 4.6087 l 0.33035,0.35681 c 0.71535,0.77264 0.73819,1.23134 0.0986,1.98092 l -0.32383,0.37952 h -4.71271 -4.71271 z m 37.14457,-7.88479 0.36054,-0.36297 -0.0193,-2.53954 c -0.0211,-2.78568 -0.0342,-2.91838 -0.31488,-3.2139 -0.23199,-0.24424 -0.49027,-0.34701 -1.00549,-0.40008 -0.29286,-0.0302 -6.61388,-0.0569 -16.72484,-0.0708 -18.25137,-0.0251 -20.71305,0.002 -21.58523,0.23675 -0.23866,0.0643 -0.49537,0.31953 -0.57982,0.57655 -0.0434,0.13224 -0.0656,0.91688 -0.0792,2.79786 l -0.0188,2.61407 0.36012,0.36255 0.36012,0.36254 h 19.44311 19.44312 z m -34.13095,-1.56886 c -1.12766,-0.0164 -2.16144,-0.0471 -2.29731,-0.0683 -0.71033,-0.11099 -1.22855,-0.64678 -1.22327,-1.26474 0.004,-0.43684 0.28705,-1.04339 0.5738,-1.22845 0.17089,-0.11028 1.57714,-0.15208 5.07117,-0.15072 3.8972,0.002 4.55393,0.028 4.78557,0.19294 0.35469,0.25256 0.58864,1.07043 0.44894,1.5694 -0.0944,0.3371 -0.43522,0.6741 -0.78811,0.77925 -0.59872,0.17839 -2.54832,0.22903 -6.57079,0.17066 z m 26.51622,0.002 c -0.29304,-0.0727 -0.45016,-0.17235 -0.68696,-0.43573 -0.22091,-0.2457 -0.38598,-0.62756 -0.38598,-0.89288 0,-0.45908 0.50302,-1.12333 0.93869,-1.23957 0.25842,-0.0689 0.75441,-0.0357 1.00034,0.067 0.45216,0.18892 0.73779,0.6357 0.7476,1.16939 0.007,0.42401 -0.11224,0.7274 -0.38858,0.98213 -0.34905,0.32174 -0.80867,0.45291 -1.22511,0.34961 z m 3.91817,-0.045 c -0.336,-0.11597 -0.75436,-0.5265 -0.83592,-0.82025 -0.0703,-0.25327 -0.0694,-0.65479 0.002,-0.86669 0.15454,-0.45896 0.64331,-0.83124 1.14348,-0.87096 0.42893,-0.0341 0.67143,0.0453 0.97664,0.31975 0.33523,0.3014 0.43943,0.53245 0.4402,0.97612 8.2e-4,0.61686 -0.35507,1.12177 -0.90687,1.28563 -0.32003,0.095 -0.48995,0.0901 -0.81945,-0.0236 z m 3.66592,-8.14044 0.38398,-0.38172 v -2.88306 -2.88306 l -0.37855,-0.41585 -0.37855,-0.41584 -17.5429,0.006 c -9.64861,0.003 -18.37995,0.0197 -19.40299,0.0371 l -1.86007,0.0314 -0.23948,0.20305 c -0.13171,0.11168 -0.29512,0.31113 -0.36312,0.44323 l -0.12366,0.24018 -0.0146,2.8387 -0.0146,2.83871 0.35923,0.36164 0.35922,0.36164 h 19.4161 19.41608 z m -35.28602,-1.99203 c -1.20654,-0.0389 -1.39198,-0.0697 -1.73579,-0.28767 -0.45326,-0.28745 -0.67631,-0.75212 -0.58864,-1.22634 0.0642,-0.34762 0.28092,-0.77968 0.47757,-0.95234 0.14166,-0.12438 0.21338,-0.14461 0.64494,-0.18189 0.62878,-0.0544 8.2709,-0.0548 8.77453,-5.6e-4 0.46408,0.05 0.58869,0.13813 0.82672,0.58471 0.13509,0.25346 0.16886,0.37794 0.18495,0.68185 0.0186,0.35068 0.0104,0.38722 -0.14499,0.64352 -0.18145,0.29939 -0.51817,0.55801 -0.83905,0.64441 -0.45765,0.12324 -4.96769,0.1792 -7.60024,0.0943 z m 31.60044,-0.0208 c -0.47207,-0.16826 -0.83015,-0.63856 -0.86154,-1.13153 -0.028,-0.43859 0.0563,-0.69144 0.3264,-0.98023 0.33524,-0.3584 0.52328,-0.43907 1.02343,-0.43907 0.48086,0 0.61401,0.0532 0.88566,0.35387 0.38355,0.42455 0.49797,1.01226 0.28862,1.48265 -0.26566,0.59691 -1.04844,0.93323 -1.66257,0.71431 z"
         id="path1577" />
      <path
         style="fill:#000000;stroke-width:0.04940443"
         d="m -65.152067,147.65972 c -1.91744,-0.0613 -2.67236,-0.15591 -3.13717,-0.39303 -0.10703,-0.0546 -0.41353,-0.31593 -0.68113,-0.58073 -0.81113,-0.80268 -1.19539,-1.44077 -1.30151,-2.16122 -0.0891,-0.60502 -0.0892,-5.90944 -5e-5,-6.39787 0.097,-0.53169 0.26123,-0.93384 0.58137,-1.42364 0.15423,-0.23597 0.28065,-0.45362 0.28095,-0.48368 3.7e-4,-0.0301 -0.12688,-0.25562 -0.28259,-0.50126 -0.15572,-0.24563 -0.3363,-0.5995 -0.40129,-0.78638 -0.23193,-0.66693 -0.24628,-0.89436 -0.24249,-3.84518 0.004,-3.26906 0.0192,-3.44614 0.34698,-4.10353 0.12276,-0.24618 0.31087,-0.56343 0.41803,-0.70501 0.10715,-0.14157 0.19483,-0.28535 0.19483,-0.3195 0,-0.0341 -0.0893,-0.18098 -0.19855,-0.3263 -0.31746,-0.42252 -0.63433,-1.11462 -0.69209,-1.51168 -0.0276,-0.1902 -0.0642,-1.40185 -0.0811,-2.69254 -0.0437,-3.32797 0.022,-3.82332 0.62462,-4.71299 0.16375,-0.24172 0.29772,-0.48418 0.29772,-0.53878 0,-0.0546 -0.0522,-0.16806 -0.11601,-0.25215 -0.21015,-0.2769 -0.564,-0.94185 -0.6475,-1.21675 -0.12176,-0.4008 -0.18819,-2.33477 -0.15862,-4.61765 0.039,-3.01399 0.019,-2.96063 1.78671,-4.75914 1.79893,-1.83025 5.00472,-4.875 5.62777,-5.34503 0.13825,-0.1043 0.44199,-0.28106 0.67498,-0.39279 l 0.4236,-0.20315 1.05853,-0.0459 c 0.5866,-0.0254 6.96903,-0.0466 14.31576,-0.0474 l 13.25725,-0.002 0.44886,0.23184 c 0.24688,0.12751 0.61455,0.36348 0.81704,0.52441 0.99112,0.78761 2.94197,2.57711 4.72187,4.33133 1.66068,1.63675 2.00255,2.02495 2.27871,2.58768 0.35256,0.7184 0.37513,0.91911 0.40493,3.6005 0.041,3.68649 -0.0544,4.35693 -0.74579,5.24638 -0.12515,0.16099 -0.22754,0.31044 -0.22754,0.33209 0,0.0216 0.13179,0.2401 0.29288,0.48542 0.54258,0.82631 0.64016,1.27762 0.67859,3.13856 0.0353,1.71001 -0.0501,4.24588 -0.15635,4.64379 -0.0889,0.33292 -0.33887,0.81195 -0.62413,1.19615 -0.10505,0.1415 -0.19099,0.2905 -0.19099,0.33112 0,0.0406 0.0995,0.21627 0.22122,0.39031 0.12167,0.17405 0.31004,0.50304 0.4186,0.73108 0.17303,0.36345 0.20426,0.48477 0.25297,0.98279 0.0833,0.85186 0.0885,5.81401 0.007,6.22496 -0.11306,0.56654 -0.25163,0.90849 -0.56166,1.386 -0.16666,0.25666 -0.30322,0.48889 -0.30347,0.51606 -1.9e-4,0.0272 0.12754,0.255 0.28401,0.50628 0.32304,0.51879 0.49023,0.95767 0.56934,1.4946 0.0863,0.58573 0.11507,2.88316 0.0594,4.74282 -0.06,2.00374 -0.0794,2.10196 -0.55406,2.81165 -0.37463,0.56008 -1.2152,1.40648 -1.55387,1.56464 -0.31136,0.1454 -0.92285,0.24965 -1.90207,0.32427 -0.88917,0.0678 -34.5647,0.10465 -36.58398,0.0401 z m 37.51156,-3.07438 0.35694,-0.35935 v -2.88281 -2.88281 l -0.35818,-0.40452 -0.35819,-0.40451 -12.94396,-0.0287 c -7.11918,-0.0158 -15.83411,-0.0128 -19.36653,0.007 -5.74906,0.0317 -6.43839,0.0436 -6.57335,0.11444 -0.1832,0.0961 -0.54601,0.48161 -0.62825,0.66756 -0.0441,0.0996 -0.064,0.88585 -0.0754,2.97243 l -0.0155,2.83694 0.35957,0.36199 0.35958,0.36199 h 19.44311 19.44312 z m -3.88221,-2.09064 c -0.67636,-0.33704 -0.88804,-1.11958 -0.49987,-1.84787 0.18657,-0.35003 0.41521,-0.55833 0.73094,-0.66592 0.30164,-0.10278 0.48974,-0.095 0.82945,0.0343 0.78649,0.2994 1.12138,1.15285 0.74324,1.89415 -0.2469,0.48404 -0.62786,0.71042 -1.19848,0.7122 -0.27738,7.9e-4 -0.40089,-0.025 -0.60528,-0.12689 z m -32.12258,-0.0207 c -0.69647,-0.0392 -1.1167,-0.14075 -1.26881,-0.30671 -0.0568,-0.062 -0.15544,-0.21275 -0.21917,-0.33503 -0.15801,-0.30314 -0.16454,-0.90803 -0.0133,-1.23511 0.12925,-0.27961 0.38181,-0.52785 0.60953,-0.59913 0.20969,-0.0656 3.55098,-0.13104 7.02408,-0.13748 l 2.40219,-0.004 0.35089,0.36939 c 0.19298,0.20316 0.36557,0.42793 0.38353,0.49948 0.0498,0.1983 -0.0112,0.81785 -0.10198,1.03635 -0.0444,0.10696 -0.20695,0.32231 -0.36114,0.47855 l -0.28035,0.28407 -3.9539,-0.007 c -2.17465,-0.004 -4.23183,-0.0232 -4.57152,-0.0424 z m 35.93047,-8.09044 0.43126,-0.43326 v -2.91272 -2.91272 l -0.35694,-0.35935 -0.35695,-0.35934 h -19.44312 -19.44311 l -0.35695,0.35934 -0.35695,0.35935 v 2.91272 2.91272 l 0.43127,0.43326 0.43125,0.43327 h 19.29449 19.2945 z m -7.5747,-2.00355 c -0.4765,-0.1325 -0.81159,-0.45275 -0.93504,-0.89368 -0.0808,-0.28843 -0.0456,-0.7921 0.0726,-1.03702 0.40506,-0.84039 1.52764,-0.97812 2.18,-0.26748 0.4349,0.47376 0.45246,1.16452 0.0439,1.72722 -0.28791,0.39656 -0.88551,0.60328 -1.3614,0.47096 z m 3.88033,-0.0507 c -0.60845,-0.28335 -0.95333,-1.07162 -0.74425,-1.70111 0.10284,-0.30964 0.40546,-0.66089 0.68666,-0.79702 0.27791,-0.13454 0.81222,-0.13966 1.0965,-0.0105 0.2957,0.13433 0.6501,0.55436 0.74596,0.88409 0.18457,0.63492 -0.11256,1.28002 -0.73218,1.58966 -0.37986,0.1898 -0.69743,0.20034 -1.05269,0.0349 z m -33.37228,-0.31613 c -0.71908,-0.80148 -0.71323,-1.29787 0.0245,-2.07991 l 0.33325,-0.35326 h 4.6087 4.6087 l 0.33035,0.35681 c 0.71535,0.77264 0.73819,1.23134 0.0986,1.98092 l -0.32383,0.37952 h -4.71271 -4.71271 z m 37.14457,-7.88479 0.36054,-0.36297 -0.0193,-2.53954 c -0.0211,-2.78567 -0.0342,-2.91837 -0.31488,-3.21389 -0.23199,-0.24424 -0.49027,-0.34701 -1.00549,-0.40008 -0.29286,-0.0302 -6.61388,-0.0569 -16.72484,-0.0708 -18.25137,-0.0251 -20.71305,0.002 -21.58523,0.23675 -0.23866,0.0643 -0.49537,0.31953 -0.57982,0.57655 -0.0434,0.13224 -0.0656,0.91688 -0.0792,2.79785 l -0.0188,2.61407 0.36012,0.36255 0.36012,0.36254 h 19.4431 19.44312 z m -34.13095,-1.56886 c -1.12766,-0.0164 -2.16144,-0.0471 -2.29731,-0.0683 -0.71033,-0.11099 -1.22855,-0.64678 -1.22327,-1.26474 0.004,-0.43683 0.28705,-1.04338 0.5738,-1.22844 0.17089,-0.11028 1.57714,-0.15208 5.07117,-0.15072 3.8972,0.002 4.55393,0.028 4.78557,0.19294 0.35469,0.25256 0.58864,1.07043 0.44894,1.56939 -0.0944,0.3371 -0.43522,0.6741 -0.78811,0.77925 -0.59872,0.17839 -2.54832,0.22903 -6.57079,0.17066 z m 26.51622,0.002 c -0.29304,-0.0727 -0.45016,-0.17235 -0.68696,-0.43573 -0.22091,-0.2457 -0.38598,-0.62756 -0.38598,-0.89288 0,-0.45907 0.50302,-1.12332 0.93869,-1.23956 0.25842,-0.0689 0.75441,-0.0357 1.00034,0.067 0.45216,0.18892 0.73779,0.6357 0.7476,1.16938 0.007,0.42401 -0.11224,0.7274 -0.38858,0.98213 -0.34905,0.32174 -0.80867,0.45291 -1.22511,0.34961 z m 3.91817,-0.045 c -0.336,-0.11597 -0.75436,-0.5265 -0.83592,-0.82025 -0.0703,-0.25327 -0.0694,-0.65478 0.002,-0.86668 0.15454,-0.45896 0.64331,-0.83124 1.14348,-0.87096 0.42893,-0.0341 0.67143,0.0453 0.97664,0.31975 0.33523,0.3014 0.43943,0.53245 0.4402,0.97611 7.9e-4,0.61686 -0.35507,1.12177 -0.90687,1.28563 -0.32003,0.095 -0.48995,0.0901 -0.81945,-0.0236 z m 3.66592,-8.14043 0.38398,-0.38172 v -2.88307 -2.88308 l -0.37855,-0.41585 -0.37855,-0.41584 -17.5429,0.006 c -9.64861,0.003 -18.37995,0.0197 -19.40299,0.0371 l -1.86007,0.0314 -0.23948,0.20305 c -0.13171,0.11168 -0.29512,0.31113 -0.36312,0.44323 l -0.12366,0.24018 -0.0146,2.83872 -0.0146,2.83871 0.35923,0.36164 0.35922,0.36164 h 19.4161 19.41608 z m -35.28602,-1.99203 c -1.20654,-0.0389 -1.39198,-0.0697 -1.73579,-0.28767 -0.45326,-0.28745 -0.67631,-0.75212 -0.58864,-1.22635 0.0642,-0.34762 0.28092,-0.77968 0.47757,-0.95234 0.14166,-0.12438 0.21338,-0.14461 0.64494,-0.18189 0.62878,-0.0544 8.2709,-0.0548 8.77453,-5.6e-4 0.46408,0.05 0.58869,0.13813 0.82672,0.58471 0.13509,0.25346 0.16886,0.37794 0.18495,0.68185 0.0186,0.35069 0.0104,0.38723 -0.14499,0.64353 -0.18145,0.29939 -0.51817,0.55801 -0.83905,0.64441 -0.45765,0.12324 -4.96769,0.1792 -7.60024,0.0943 z m 31.60044,-0.0208 c -0.47207,-0.16826 -0.83015,-0.63856 -0.86154,-1.13153 -0.028,-0.4386 0.0563,-0.69145 0.3264,-0.98024 0.33524,-0.3584 0.52328,-0.43907 1.02343,-0.43907 0.48086,0 0.61401,0.0532 0.88566,0.35387 0.38355,0.42455 0.49797,1.01227 0.28862,1.48266 -0.26566,0.59691 -1.04844,0.93323 -1.66257,0.71431 z"
         id="path1577-0" />
      <path
         style="fill:#000000;stroke-width:0.04940443"
         d="m -134.29641,215.81352 c -1.91744,-0.0613 -2.67236,-0.15591 -3.13717,-0.39303 -0.10703,-0.0546 -0.41353,-0.31593 -0.68113,-0.58073 -0.81113,-0.80268 -1.19539,-1.44077 -1.30151,-2.16122 -0.0891,-0.60502 -0.0892,-5.90944 -5e-5,-6.39787 0.097,-0.53169 0.26123,-0.93384 0.58137,-1.42364 0.15423,-0.23597 0.28065,-0.45362 0.28095,-0.48368 3.7e-4,-0.0301 -0.12688,-0.25562 -0.28259,-0.50126 -0.15572,-0.24563 -0.3363,-0.5995 -0.40129,-0.78638 -0.23193,-0.66693 -0.24628,-0.89436 -0.24249,-3.84518 0.004,-3.26906 0.0192,-3.44614 0.34698,-4.10353 0.12276,-0.24618 0.31087,-0.56343 0.41803,-0.70501 0.10715,-0.14157 0.19483,-0.28535 0.19483,-0.3195 0,-0.0341 -0.0893,-0.18098 -0.19855,-0.3263 -0.31746,-0.42252 -0.63433,-1.11462 -0.69209,-1.51168 -0.0276,-0.1902 -0.0642,-1.40185 -0.0811,-2.69254 -0.0437,-3.32798 0.022,-3.82333 0.62462,-4.713 0.16375,-0.24172 0.29772,-0.48418 0.29772,-0.53878 0,-0.0546 -0.0522,-0.16806 -0.11601,-0.25215 -0.21015,-0.2769 -0.564,-0.94185 -0.6475,-1.21675 -0.12176,-0.4008 -0.18819,-2.33477 -0.15862,-4.61764 0.039,-3.01397 0.019,-2.96061 1.78671,-4.75911 1.79893,-1.83024 5.00472,-4.87497 5.62777,-5.345 0.13825,-0.1043 0.44199,-0.28106 0.67498,-0.39279 l 0.4236,-0.20314 1.05853,-0.0459 c 0.5866,-0.0254 6.96903,-0.0466 14.31576,-0.0474 l 13.25725,-0.002 0.44886,0.23183 c 0.24688,0.12751 0.61455,0.36348 0.81704,0.52441 0.99112,0.7876 2.941969,2.57709 4.721869,4.3313 1.66068,1.63674 2.00255,2.02494 2.27871,2.58767 0.35256,0.71839 0.37513,0.9191 0.40493,3.60048 0.041,3.68648 -0.0544,4.35692 -0.74579,5.24637 -0.12515,0.16099 -0.22754,0.31044 -0.22754,0.33209 0,0.0216 0.13179,0.2401 0.29288,0.48542 0.54258,0.82631 0.64017,1.27762 0.67859,3.13856 0.0353,1.71002 -0.0501,4.24589 -0.15635,4.6438 -0.0889,0.33292 -0.33887,0.81195 -0.62413,1.19615 -0.10505,0.1415 -0.19099,0.2905 -0.19099,0.33112 0,0.0406 0.0995,0.21627 0.22122,0.39031 0.12167,0.17405 0.31004,0.50304 0.4186,0.73108 0.17303,0.36345 0.20426,0.48477 0.25297,0.98279 0.0833,0.85186 0.0885,5.81401 0.007,6.22496 -0.11306,0.56654 -0.25163,0.90849 -0.56166,1.386 -0.16666,0.25666 -0.30322,0.48889 -0.30347,0.51606 -1.9e-4,0.0272 0.12755,0.255 0.28401,0.50628 0.32304,0.51879 0.49023,0.95767 0.56934,1.4946 0.0863,0.58573 0.11507,2.88316 0.0594,4.74282 -0.06,2.00374 -0.0794,2.10196 -0.55406,2.81165 -0.37463,0.56008 -1.2152,1.40648 -1.55387,1.56464 -0.31136,0.1454 -0.92285,0.24965 -1.90207,0.32427 -0.88917,0.0678 -34.564699,0.10465 -36.583979,0.0401 z m 37.511559,-3.07438 0.35694,-0.35935 v -2.88281 -2.88281 l -0.35818,-0.40452 -0.35819,-0.40451 -12.943959,-0.0287 c -7.11918,-0.0158 -15.83411,-0.0128 -19.36653,0.007 -5.74906,0.0317 -6.43839,0.0436 -6.57335,0.11444 -0.1832,0.0961 -0.54601,0.48161 -0.62825,0.66756 -0.0441,0.0996 -0.064,0.88585 -0.0754,2.97243 l -0.0155,2.83694 0.35957,0.36199 0.35958,0.36199 h 19.44311 19.443119 z m -3.882209,-2.09064 c -0.67636,-0.33704 -0.88804,-1.11958 -0.49987,-1.84787 0.18657,-0.35003 0.41521,-0.55833 0.73094,-0.66592 0.30164,-0.10278 0.489739,-0.095 0.829449,0.0343 0.78649,0.2994 1.12138,1.15285 0.74324,1.89415 -0.2469,0.48404 -0.62786,0.71042 -1.198479,0.7122 -0.27738,7.9e-4 -0.40089,-0.025 -0.60528,-0.12689 z m -32.12258,-0.0207 c -0.69647,-0.0392 -1.1167,-0.14075 -1.26881,-0.30671 -0.0568,-0.062 -0.15544,-0.21275 -0.21917,-0.33503 -0.15801,-0.30314 -0.16454,-0.90803 -0.0133,-1.23511 0.12925,-0.27961 0.38181,-0.52785 0.60953,-0.59913 0.20969,-0.0656 3.55098,-0.13104 7.02408,-0.13748 l 2.40219,-0.004 0.35089,0.36939 c 0.19298,0.20316 0.36557,0.42793 0.38353,0.49948 0.0498,0.1983 -0.0112,0.81785 -0.10198,1.03635 -0.0444,0.10696 -0.20695,0.32231 -0.36114,0.47855 l -0.28035,0.28407 -3.9539,-0.007 c -2.17465,-0.004 -4.23183,-0.0232 -4.57152,-0.0424 z m 35.930469,-8.09044 0.43126,-0.43326 v -2.91272 -2.91272 l -0.35694,-0.35935 -0.35695,-0.35934 h -19.443119 -19.44311 l -0.35695,0.35934 -0.35695,0.35935 v 2.91272 2.91272 l 0.43127,0.43326 0.43125,0.43327 h 19.29449 19.294499 z m -7.574699,-2.00355 c -0.4765,-0.1325 -0.81159,-0.45275 -0.93504,-0.89368 -0.0808,-0.28843 -0.0456,-0.7921 0.0726,-1.03702 0.40506,-0.84039 1.52764,-0.97812 2.18,-0.26748 0.4349,0.47376 0.45246,1.16452 0.0439,1.72722 -0.28791,0.39656 -0.88551,0.60328 -1.36139,0.47096 z m 3.88033,-0.0507 c -0.60845,-0.28335 -0.95333,-1.07162 -0.74425,-1.70111 0.10284,-0.30964 0.40546,-0.66089 0.68666,-0.79702 0.27791,-0.13454 0.812229,-0.13966 1.096499,-0.0105 0.2957,0.13432 0.6501,0.55436 0.74596,0.88408 0.18457,0.63493 -0.11256,1.28002 -0.73218,1.58967 -0.37986,0.18979 -0.697429,0.20034 -1.052689,0.0349 z m -33.37228,-0.31614 c -0.71908,-0.80148 -0.71323,-1.29787 0.0245,-2.07991 l 0.33325,-0.35326 h 4.6087 4.6087 l 0.33035,0.35681 c 0.71535,0.77264 0.73819,1.23134 0.0986,1.98092 l -0.32383,0.37952 h -4.71271 -4.71271 z m 37.144569,-7.88479 0.36055,-0.36297 -0.0193,-2.53954 c -0.0211,-2.78568 -0.0342,-2.91838 -0.31488,-3.2139 -0.23199,-0.24424 -0.49027,-0.34701 -1.00549,-0.40008 -0.29286,-0.0302 -6.613879,-0.0569 -16.724849,-0.0708 -18.25136,-0.0251 -20.71304,0.002 -21.58522,0.23675 -0.23866,0.0643 -0.49537,0.31953 -0.57983,0.57655 -0.0434,0.13224 -0.0656,0.91688 -0.0792,2.79786 l -0.0188,2.61407 0.36012,0.36255 0.36012,0.36254 h 19.4431 19.443119 z m -34.130949,-1.56885 c -1.12766,-0.0164 -2.16144,-0.0471 -2.29731,-0.0683 -0.71033,-0.11099 -1.22855,-0.64678 -1.22327,-1.26474 0.004,-0.43684 0.28705,-1.04339 0.5738,-1.22845 0.17089,-0.11028 1.57714,-0.15208 5.07117,-0.15072 3.8972,0.002 4.55393,0.028 4.78557,0.19294 0.35469,0.25256 0.58864,1.07043 0.44894,1.5694 -0.0944,0.3371 -0.43522,0.6741 -0.78811,0.77925 -0.59872,0.17839 -2.54832,0.22903 -6.57079,0.17066 z m 26.51622,0.002 c -0.29304,-0.0727 -0.45016,-0.17235 -0.68696,-0.43573 -0.22091,-0.2457 -0.38598,-0.62756 -0.38598,-0.89288 0,-0.45908 0.50302,-1.12333 0.93869,-1.23957 0.25842,-0.0689 0.75441,-0.0357 1.00034,0.067 0.45216,0.18892 0.73779,0.6357 0.7476,1.16939 0.007,0.42401 -0.11224,0.7274 -0.38858,0.98213 -0.34905,0.32174 -0.80867,0.45291 -1.22511,0.34961 z m 3.91817,-0.045 c -0.336,-0.11597 -0.75436,-0.5265 -0.83592,-0.82025 -0.0703,-0.25327 -0.0694,-0.65479 0.002,-0.86669 0.15454,-0.45896 0.64331,-0.83124 1.14348,-0.87096 0.428929,-0.0341 0.671429,0.0453 0.976639,0.31975 0.33523,0.3014 0.43943,0.53245 0.4402,0.97612 7.9e-4,0.61686 -0.35507,1.12177 -0.90687,1.28563 -0.32003,0.095 -0.489949,0.0901 -0.819449,-0.0236 z m 3.665919,-8.14044 0.38398,-0.38172 v -2.88308 -2.88306 l -0.37855,-0.41585 -0.37855,-0.41584 -17.542899,0.006 c -9.64861,0.003 -18.37995,0.0197 -19.40299,0.0371 l -1.86007,0.0314 -0.23948,0.20305 c -0.13171,0.11168 -0.29512,0.31113 -0.36312,0.44323 l -0.12366,0.24018 -0.0146,2.8387 -0.0146,2.83871 0.35923,0.36164 0.35922,0.36164 h 19.4161 19.416079 z m -35.286019,-1.99203 c -1.20654,-0.0389 -1.39198,-0.0697 -1.73579,-0.28767 -0.45326,-0.28745 -0.67631,-0.75212 -0.58864,-1.22634 0.0642,-0.34762 0.28092,-0.77968 0.47757,-0.95234 0.14166,-0.12438 0.21338,-0.14461 0.64494,-0.18189 0.62878,-0.0544 8.2709,-0.0548 8.77453,-5.5e-4 0.46408,0.05 0.58869,0.13813 0.82672,0.58471 0.13509,0.25346 0.16886,0.37794 0.18495,0.68185 0.0186,0.35068 0.0104,0.38722 -0.14499,0.64352 -0.18145,0.29939 -0.51817,0.55801 -0.83905,0.64441 -0.45765,0.12323 -4.96769,0.17919 -7.60024,0.0943 z m 31.60044,-0.0208 c -0.47207,-0.16825 -0.83015,-0.63855 -0.86154,-1.13152 -0.028,-0.43859 0.0563,-0.69144 0.3264,-0.98023 0.33524,-0.3584 0.52328,-0.43907 1.02343,-0.43907 0.480859,0 0.614009,0.0532 0.885659,0.35387 0.38355,0.42455 0.49797,1.01226 0.28862,1.48265 -0.26566,0.59691 -1.04844,0.93322 -1.662569,0.7143 z"
         id="path1577-0-3" />
      <path
         style="fill:none;stroke:#ff5555;stroke-width:3;stroke-linecap:butt;stroke-linejoin:miter;stroke-miterlimit:4;stroke-dasharray:none;stroke-opacity:1;marker-end:url(#Arrow2Mend)"
         d="M -27.283566,138.46037 C 22.45064,124.34389 50.397187,119.33303 63.819039,182.64228"
         id="path1797" />
      <path
         style="fill:none;stroke:#ff5555;stroke-width:3;stroke-linecap:butt;stroke-linejoin:miter;stroke-miterlimit:4;stroke-dasharray:none;stroke-opacity:1;marker-end:url(#marker2729)"
         d="m -96.427911,212.37979 c 106.584153,22.07914 143.083324,9.8866 160.24695,-19.83124"
         id="path2113" />
      <path
         style="fill:none;stroke:#ff5555;stroke-width:3;stroke-linecap:butt;stroke-linejoin:miter;stroke-miterlimit:4;stroke-dasharray:none;stroke-opacity:1;marker-end:url(#marker2719)"
         d="m -21.670906,251.94623 c 73.788462,-0.64932 88.6388,-7.22919 91.102605,-53.51775"
         id="path2115" />
      <path
         style="fill:none;stroke:#ff5555;stroke-width:3;stroke-linecap:butt;stroke-linejoin:miter;stroke-miterlimit:4;stroke-dasharray:none;stroke-opacity:1;marker-end:url(#marker2565)"
         d="m 206.0648,192.89852 c -1.20271,26.72695 0.53454,34.47777 26.72696,35.01231"
         id="path2381" />
    </g>
  </g>
</svg>
